<?xml version="1.0" encoding="utf-8"?>
<!-- Generator: Adobe Illustrator 26.3.1, SVG Export Plug-In . SVG Version: 6.00 Build 0)  -->
<svg version="1.1" id="Layer_1" xmlns="http://www.w3.org/2000/svg" xmlns:xlink="http://www.w3.org/1999/xlink" x="0px" y="0px"
	 viewBox="0 0 3317 881" style="enable-background:new 0 0 3317 881;" xml:space="preserve">
<style type="text/css">
	.st0{fill:#FFCC00;}
	.st1{font-family:'Montserrat-Bold';}
	.st2{font-size:351.7238px;}
	.st3{letter-spacing:54;}
</style>
<path class="st0" d="M630.59,192.7H384.16C267.1,141.1,171.79,150.26,130.9,164.85c-12.69,4.53-21.29,16.44-21.77,29.99
	c0,4.73,0.08,9.58,0.22,14.51v473.42h698.96V387.26V192.7H630.59z M563.74,230.38c-9.98,6.9-18.73,15.12-25.49,24.43l-0.03-0.02
	c-0.2,0.3-0.4,0.6-0.6,0.9c-2.47,3.47-4.77,7.09-6.88,10.83c-1.17,1.9-2.28,3.75-3.35,5.51c-13.15,21.74-17.44,26.82-29.45,26.82
	c-11.33,0-21.98-4.57-28.49-12.22c-6.41-7.53-8.68-17.69-6.74-30.19c1.82-9.72-1.54-19.56-8.59-26.07H563.74z M147.04,645.09V398.38
	c21.12,49.45,50.11,94.3,86.31,133.42c48.62,52.56,103.58,90.94,164.21,113.29H147.04z M260.73,506.12
	C225,467.5,196.89,422.8,177.19,373.27c-14.89-37.43-24.38-76.25-28.4-115.88c-0.83-8.21,7.68-14.11,15.01-10.42
	c123.89,62.3,203.16,52.96,249.32,32.07c5.83-2.64,12.57,0.51,14.34,6.7c3.16,11.04,8.48,19.42,13.57,25.4
	c13.52,15.9,34.8,25.39,56.92,25.39c2.86,0,5.57-0.16,8.16-0.46c5.21-0.61,10.13,2.89,11.28,8.05c8.04,35.8,39.04,62.64,76.08,63.1
	l0.96,0.01v-0.01c29.95-0.53,54.16-25.73,54.16-56.63c0-23.74-18.19-41.64-42.32-41.64c-15.27,0-27.24,9.81-29.97,23.63
	c-0.43,2.03-0.68,4.12-0.68,6.28c0,14.72,10.67,26.9,24.65,29.21c-1.99,0.89-4.15,1.42-6.43,1.47
	c-22.7-0.33-41.06-19.86-41.06-43.82c0-14.51,3.68-28.13,10.12-39.9c1.8-2.94,3.68-5.93,5.69-8.96
	c14.02-19.19,42.32-31.63,67.12-31.77c75.54,0.31,120.27,64.47,120.27,143.29c0,133.17-101.9,241.53-229.79,241.77
	C423.49,630,334.6,585.96,260.73,506.12z M770.64,645.09H631.96c61.93-27.86,111.53-79.39,138.68-143.6V645.09z M770.64,290.82
	c-13.08-25.03-31.47-45.86-54.31-60.44h54.31V290.82z"/>
<text transform="matrix(1 0 0 1 892.3906 573.2947)" class="st0 st1 st2 st3">To Do App</text>
</svg>
